<svg width="383" height="21" viewBox="0 0 383 21" fill="none" xmlns="http://www.w3.org/2000/svg">
<path d="M372.703 3.44495H7.28147C3.54412 3.44495 0.514404 6.47467 0.514404 10.212C0.514404 13.9494 3.54412 16.9791 7.28147 16.9791H372.703C376.44 16.9791 379.47 13.9494 379.47 10.212C379.47 6.47467 376.44 3.44495 372.703 3.44495Z" fill="#FF7D6B"/>
<path d="M372.703 1.75317H109.633C104.961 1.75317 101.174 5.54032 101.174 10.212C101.174 14.8837 104.961 18.6708 109.633 18.6708H372.703C377.375 18.6708 381.162 14.8837 381.162 10.212C381.162 5.54032 377.375 1.75317 372.703 1.75317Z" fill="#6C15FA" stroke="white" stroke-width="3.38353"/>
<path d="M372.703 1.75317H205.218C200.546 1.75317 196.759 5.54032 196.759 10.212C196.759 14.8837 200.546 18.6708 205.218 18.6708H372.703C377.375 18.6708 381.162 14.8837 381.162 10.212C381.162 5.54032 377.375 1.75317 372.703 1.75317Z" fill="#FFB443" stroke="white" stroke-width="3.38353"/>
</svg>
