<svg width="826" height="474" viewBox="0 0 826 474" fill="none" xmlns="http://www.w3.org/2000/svg">
<rect width="825" height="472.5" transform="translate(0.5 0.75)" fill="#F4F5FD"/>
<g clip-path="url(#clip0_242_17179)">
<g opacity="0.2">
<path d="M103.164 8.4959C105.303 8.4959 107.037 6.76192 107.037 4.62295C107.037 2.48398 105.303 0.75 103.164 0.75C101.025 0.75 99.291 2.48398 99.291 4.62295C99.291 6.76192 101.025 8.4959 103.164 8.4959Z" fill="#878CBD"/>
<path d="M103.164 85.9549C105.303 85.9549 107.037 84.2209 107.037 82.0819C107.037 79.943 105.303 78.209 103.164 78.209C101.025 78.209 99.291 79.943 99.291 82.0819C99.291 84.2209 101.025 85.9549 103.164 85.9549Z" fill="#878CBD"/>
<path d="M103.164 163.414C105.303 163.414 107.037 161.68 107.037 159.541C107.037 157.402 105.303 155.668 103.164 155.668C101.025 155.668 99.291 157.402 99.291 159.541C99.291 161.68 101.025 163.414 103.164 163.414Z" fill="#878CBD"/>
<path d="M103.164 240.873C105.303 240.873 107.037 239.139 107.037 237C107.037 234.861 105.303 233.127 103.164 233.127C101.025 233.127 99.291 234.861 99.291 237C99.291 239.139 101.025 240.873 103.164 240.873Z" fill="#878CBD"/>
<path d="M103.164 318.332C105.303 318.332 107.037 316.598 107.037 314.459C107.037 312.32 105.303 310.586 103.164 310.586C101.025 310.586 99.291 312.32 99.291 314.459C99.291 316.598 101.025 318.332 103.164 318.332Z" fill="#878CBD"/>
<path d="M103.164 395.791C105.303 395.791 107.037 394.057 107.037 391.918C107.037 389.779 105.303 388.045 103.164 388.045C101.025 388.045 99.291 389.779 99.291 391.918C99.291 394.057 101.025 395.791 103.164 395.791Z" fill="#878CBD"/>
<path d="M103.164 473.25C105.303 473.25 107.037 471.516 107.037 469.377C107.037 467.238 105.303 465.504 103.164 465.504C101.025 465.504 99.291 467.238 99.291 469.377C99.291 471.516 101.025 473.25 103.164 473.25Z" fill="#878CBD"/>
<path d="M180.623 8.4959C182.762 8.4959 184.496 6.76192 184.496 4.62295C184.496 2.48398 182.762 0.75 180.623 0.75C178.484 0.75 176.75 2.48398 176.75 4.62295C176.75 6.76192 178.484 8.4959 180.623 8.4959Z" fill="#878CBD"/>
<path d="M180.623 85.9549C182.762 85.9549 184.496 84.2209 184.496 82.0819C184.496 79.943 182.762 78.209 180.623 78.209C178.484 78.209 176.75 79.943 176.75 82.0819C176.75 84.2209 178.484 85.9549 180.623 85.9549Z" fill="#878CBD"/>
<path d="M180.623 163.414C182.762 163.414 184.496 161.68 184.496 159.541C184.496 157.402 182.762 155.668 180.623 155.668C178.484 155.668 176.75 157.402 176.75 159.541C176.75 161.68 178.484 163.414 180.623 163.414Z" fill="#878CBD"/>
<path d="M180.623 240.873C182.762 240.873 184.496 239.139 184.496 237C184.496 234.861 182.762 233.127 180.623 233.127C178.484 233.127 176.75 234.861 176.75 237C176.75 239.139 178.484 240.873 180.623 240.873Z" fill="#878CBD"/>
<path d="M180.623 318.332C182.762 318.332 184.496 316.598 184.496 314.459C184.496 312.32 182.762 310.586 180.623 310.586C178.484 310.586 176.75 312.32 176.75 314.459C176.75 316.598 178.484 318.332 180.623 318.332Z" fill="#878CBD"/>
<path d="M180.623 395.791C182.762 395.791 184.496 394.057 184.496 391.918C184.496 389.779 182.762 388.045 180.623 388.045C178.484 388.045 176.75 389.779 176.75 391.918C176.75 394.057 178.484 395.791 180.623 395.791Z" fill="#878CBD"/>
<path d="M180.623 473.25C182.762 473.25 184.496 471.516 184.496 469.377C184.496 467.238 182.762 465.504 180.623 465.504C178.484 465.504 176.75 467.238 176.75 469.377C176.75 471.516 178.484 473.25 180.623 473.25Z" fill="#878CBD"/>
<path d="M258.082 8.4959C260.221 8.4959 261.955 6.76192 261.955 4.62295C261.955 2.48398 260.221 0.75 258.082 0.75C255.943 0.75 254.209 2.48398 254.209 4.62295C254.209 6.76192 255.943 8.4959 258.082 8.4959Z" fill="#878CBD"/>
<path d="M258.082 85.9549C260.221 85.9549 261.955 84.2209 261.955 82.0819C261.955 79.943 260.221 78.209 258.082 78.209C255.943 78.209 254.209 79.943 254.209 82.0819C254.209 84.2209 255.943 85.9549 258.082 85.9549Z" fill="#878CBD"/>
<path d="M258.082 163.414C260.221 163.414 261.955 161.68 261.955 159.541C261.955 157.402 260.221 155.668 258.082 155.668C255.943 155.668 254.209 157.402 254.209 159.541C254.209 161.68 255.943 163.414 258.082 163.414Z" fill="#878CBD"/>
<path d="M258.082 240.873C260.221 240.873 261.955 239.139 261.955 237C261.955 234.861 260.221 233.127 258.082 233.127C255.943 233.127 254.209 234.861 254.209 237C254.209 239.139 255.943 240.873 258.082 240.873Z" fill="#878CBD"/>
<path d="M258.082 318.332C260.221 318.332 261.955 316.598 261.955 314.459C261.955 312.32 260.221 310.586 258.082 310.586C255.943 310.586 254.209 312.32 254.209 314.459C254.209 316.598 255.943 318.332 258.082 318.332Z" fill="#878CBD"/>
<path d="M258.082 395.791C260.221 395.791 261.955 394.057 261.955 391.918C261.955 389.779 260.221 388.045 258.082 388.045C255.943 388.045 254.209 389.779 254.209 391.918C254.209 394.057 255.943 395.791 258.082 395.791Z" fill="#878CBD"/>
<path d="M258.082 473.25C260.221 473.25 261.955 471.516 261.955 469.377C261.955 467.238 260.221 465.504 258.082 465.504C255.943 465.504 254.209 467.238 254.209 469.377C254.209 471.516 255.943 473.25 258.082 473.25Z" fill="#878CBD"/>
<path d="M335.541 8.4959C337.68 8.4959 339.414 6.76192 339.414 4.62295C339.414 2.48398 337.68 0.75 335.541 0.75C333.402 0.75 331.668 2.48398 331.668 4.62295C331.668 6.76192 333.402 8.4959 335.541 8.4959Z" fill="#878CBD"/>
<path d="M335.541 85.9549C337.68 85.9549 339.414 84.2209 339.414 82.0819C339.414 79.943 337.68 78.209 335.541 78.209C333.402 78.209 331.668 79.943 331.668 82.0819C331.668 84.2209 333.402 85.9549 335.541 85.9549Z" fill="#878CBD"/>
<path d="M335.541 163.414C337.68 163.414 339.414 161.68 339.414 159.541C339.414 157.402 337.68 155.668 335.541 155.668C333.402 155.668 331.668 157.402 331.668 159.541C331.668 161.68 333.402 163.414 335.541 163.414Z" fill="#878CBD"/>
<path d="M335.541 240.873C337.68 240.873 339.414 239.139 339.414 237C339.414 234.861 337.68 233.127 335.541 233.127C333.402 233.127 331.668 234.861 331.668 237C331.668 239.139 333.402 240.873 335.541 240.873Z" fill="#878CBD"/>
<path d="M335.541 318.332C337.68 318.332 339.414 316.598 339.414 314.459C339.414 312.32 337.68 310.586 335.541 310.586C333.402 310.586 331.668 312.32 331.668 314.459C331.668 316.598 333.402 318.332 335.541 318.332Z" fill="#878CBD"/>
<path d="M335.541 395.791C337.68 395.791 339.414 394.057 339.414 391.918C339.414 389.779 337.68 388.045 335.541 388.045C333.402 388.045 331.668 389.779 331.668 391.918C331.668 394.057 333.402 395.791 335.541 395.791Z" fill="#878CBD"/>
<path d="M335.541 473.25C337.68 473.25 339.414 471.516 339.414 469.377C339.414 467.238 337.68 465.504 335.541 465.504C333.402 465.504 331.668 467.238 331.668 469.377C331.668 471.516 333.402 473.25 335.541 473.25Z" fill="#878CBD"/>
<path d="M413 8.4959C415.139 8.4959 416.873 6.76192 416.873 4.62295C416.873 2.48398 415.139 0.75 413 0.75C410.861 0.75 409.127 2.48398 409.127 4.62295C409.127 6.76192 410.861 8.4959 413 8.4959Z" fill="#878CBD"/>
<path d="M413 85.9549C415.139 85.9549 416.873 84.2209 416.873 82.0819C416.873 79.943 415.139 78.209 413 78.209C410.861 78.209 409.127 79.943 409.127 82.0819C409.127 84.2209 410.861 85.9549 413 85.9549Z" fill="#878CBD"/>
<path d="M413 163.414C415.139 163.414 416.873 161.68 416.873 159.541C416.873 157.402 415.139 155.668 413 155.668C410.861 155.668 409.127 157.402 409.127 159.541C409.127 161.68 410.861 163.414 413 163.414Z" fill="#878CBD"/>
<path d="M413 240.873C415.139 240.873 416.873 239.139 416.873 237C416.873 234.861 415.139 233.127 413 233.127C410.861 233.127 409.127 234.861 409.127 237C409.127 239.139 410.861 240.873 413 240.873Z" fill="#878CBD"/>
<path d="M413 318.332C415.139 318.332 416.873 316.598 416.873 314.459C416.873 312.32 415.139 310.586 413 310.586C410.861 310.586 409.127 312.32 409.127 314.459C409.127 316.598 410.861 318.332 413 318.332Z" fill="#878CBD"/>
<path d="M413 395.791C415.139 395.791 416.873 394.057 416.873 391.918C416.873 389.779 415.139 388.045 413 388.045C410.861 388.045 409.127 389.779 409.127 391.918C409.127 394.057 410.861 395.791 413 395.791Z" fill="#878CBD"/>
<path d="M413 473.25C415.139 473.25 416.873 471.516 416.873 469.377C416.873 467.238 415.139 465.504 413 465.504C410.861 465.504 409.127 467.238 409.127 469.377C409.127 471.516 410.861 473.25 413 473.25Z" fill="#878CBD"/>
<path d="M490.459 8.4959C492.598 8.4959 494.332 6.76192 494.332 4.62295C494.332 2.48398 492.598 0.75 490.459 0.75C488.32 0.75 486.586 2.48398 486.586 4.62295C486.586 6.76192 488.32 8.4959 490.459 8.4959Z" fill="#878CBD"/>
<path d="M490.459 85.9549C492.598 85.9549 494.332 84.2209 494.332 82.0819C494.332 79.943 492.598 78.209 490.459 78.209C488.32 78.209 486.586 79.943 486.586 82.0819C486.586 84.2209 488.32 85.9549 490.459 85.9549Z" fill="#878CBD"/>
<path d="M490.459 163.414C492.598 163.414 494.332 161.68 494.332 159.541C494.332 157.402 492.598 155.668 490.459 155.668C488.32 155.668 486.586 157.402 486.586 159.541C486.586 161.68 488.32 163.414 490.459 163.414Z" fill="#878CBD"/>
<path d="M490.459 240.873C492.598 240.873 494.332 239.139 494.332 237C494.332 234.861 492.598 233.127 490.459 233.127C488.32 233.127 486.586 234.861 486.586 237C486.586 239.139 488.32 240.873 490.459 240.873Z" fill="#878CBD"/>
<path d="M490.459 318.332C492.598 318.332 494.332 316.598 494.332 314.459C494.332 312.32 492.598 310.586 490.459 310.586C488.32 310.586 486.586 312.32 486.586 314.459C486.586 316.598 488.32 318.332 490.459 318.332Z" fill="#878CBD"/>
<path d="M490.459 395.791C492.598 395.791 494.332 394.057 494.332 391.918C494.332 389.779 492.598 388.045 490.459 388.045C488.32 388.045 486.586 389.779 486.586 391.918C486.586 394.057 488.32 395.791 490.459 395.791Z" fill="#878CBD"/>
<path d="M490.459 473.25C492.598 473.25 494.332 471.516 494.332 469.377C494.332 467.238 492.598 465.504 490.459 465.504C488.32 465.504 486.586 467.238 486.586 469.377C486.586 471.516 488.32 473.25 490.459 473.25Z" fill="#878CBD"/>
<path d="M567.918 8.4959C570.057 8.4959 571.791 6.76192 571.791 4.62295C571.791 2.48398 570.057 0.75 567.918 0.75C565.779 0.75 564.045 2.48398 564.045 4.62295C564.045 6.76192 565.779 8.4959 567.918 8.4959Z" fill="#878CBD"/>
<path d="M567.918 85.9549C570.057 85.9549 571.791 84.2209 571.791 82.0819C571.791 79.943 570.057 78.209 567.918 78.209C565.779 78.209 564.045 79.943 564.045 82.0819C564.045 84.2209 565.779 85.9549 567.918 85.9549Z" fill="#878CBD"/>
<path d="M567.918 163.414C570.057 163.414 571.791 161.68 571.791 159.541C571.791 157.402 570.057 155.668 567.918 155.668C565.779 155.668 564.045 157.402 564.045 159.541C564.045 161.68 565.779 163.414 567.918 163.414Z" fill="#878CBD"/>
<path d="M567.918 240.873C570.057 240.873 571.791 239.139 571.791 237C571.791 234.861 570.057 233.127 567.918 233.127C565.779 233.127 564.045 234.861 564.045 237C564.045 239.139 565.779 240.873 567.918 240.873Z" fill="#878CBD"/>
<path d="M567.918 318.332C570.057 318.332 571.791 316.598 571.791 314.459C571.791 312.32 570.057 310.586 567.918 310.586C565.779 310.586 564.045 312.32 564.045 314.459C564.045 316.598 565.779 318.332 567.918 318.332Z" fill="#878CBD"/>
<path d="M567.918 395.791C570.057 395.791 571.791 394.057 571.791 391.918C571.791 389.779 570.057 388.045 567.918 388.045C565.779 388.045 564.045 389.779 564.045 391.918C564.045 394.057 565.779 395.791 567.918 395.791Z" fill="#878CBD"/>
<path d="M567.918 473.25C570.057 473.25 571.791 471.516 571.791 469.377C571.791 467.238 570.057 465.504 567.918 465.504C565.779 465.504 564.045 467.238 564.045 469.377C564.045 471.516 565.779 473.25 567.918 473.25Z" fill="#878CBD"/>
<path d="M645.377 8.4959C647.516 8.4959 649.25 6.76192 649.25 4.62295C649.25 2.48398 647.516 0.75 645.377 0.75C643.238 0.75 641.504 2.48398 641.504 4.62295C641.504 6.76192 643.238 8.4959 645.377 8.4959Z" fill="#878CBD"/>
<path d="M645.377 85.9549C647.516 85.9549 649.25 84.2209 649.25 82.0819C649.25 79.943 647.516 78.209 645.377 78.209C643.238 78.209 641.504 79.943 641.504 82.0819C641.504 84.2209 643.238 85.9549 645.377 85.9549Z" fill="#878CBD"/>
<path d="M645.377 163.414C647.516 163.414 649.25 161.68 649.25 159.541C649.25 157.402 647.516 155.668 645.377 155.668C643.238 155.668 641.504 157.402 641.504 159.541C641.504 161.68 643.238 163.414 645.377 163.414Z" fill="#878CBD"/>
<path d="M645.377 240.873C647.516 240.873 649.25 239.139 649.25 237C649.25 234.861 647.516 233.127 645.377 233.127C643.238 233.127 641.504 234.861 641.504 237C641.504 239.139 643.238 240.873 645.377 240.873Z" fill="#878CBD"/>
<path d="M645.377 318.332C647.516 318.332 649.25 316.598 649.25 314.459C649.25 312.32 647.516 310.586 645.377 310.586C643.238 310.586 641.504 312.32 641.504 314.459C641.504 316.598 643.238 318.332 645.377 318.332Z" fill="#878CBD"/>
<path d="M645.377 395.791C647.516 395.791 649.25 394.057 649.25 391.918C649.25 389.779 647.516 388.045 645.377 388.045C643.238 388.045 641.504 389.779 641.504 391.918C641.504 394.057 643.238 395.791 645.377 395.791Z" fill="#878CBD"/>
<path d="M645.377 473.25C647.516 473.25 649.25 471.516 649.25 469.377C649.25 467.238 647.516 465.504 645.377 465.504C643.238 465.504 641.504 467.238 641.504 469.377C641.504 471.516 643.238 473.25 645.377 473.25Z" fill="#878CBD"/>
<path d="M722.836 8.4959C724.975 8.4959 726.709 6.76192 726.709 4.62295C726.709 2.48398 724.975 0.75 722.836 0.75C720.697 0.75 718.963 2.48398 718.963 4.62295C718.963 6.76192 720.697 8.4959 722.836 8.4959Z" fill="#878CBD"/>
<path d="M722.836 85.9549C724.975 85.9549 726.709 84.2209 726.709 82.0819C726.709 79.943 724.975 78.209 722.836 78.209C720.697 78.209 718.963 79.943 718.963 82.0819C718.963 84.2209 720.697 85.9549 722.836 85.9549Z" fill="#878CBD"/>
<path d="M722.836 163.414C724.975 163.414 726.709 161.68 726.709 159.541C726.709 157.402 724.975 155.668 722.836 155.668C720.697 155.668 718.963 157.402 718.963 159.541C718.963 161.68 720.697 163.414 722.836 163.414Z" fill="#878CBD"/>
<path d="M722.836 240.873C724.975 240.873 726.709 239.139 726.709 237C726.709 234.861 724.975 233.127 722.836 233.127C720.697 233.127 718.963 234.861 718.963 237C718.963 239.139 720.697 240.873 722.836 240.873Z" fill="#878CBD"/>
<path d="M722.836 318.332C724.975 318.332 726.709 316.598 726.709 314.459C726.709 312.32 724.975 310.586 722.836 310.586C720.697 310.586 718.963 312.32 718.963 314.459C718.963 316.598 720.697 318.332 722.836 318.332Z" fill="#878CBD"/>
<path d="M722.836 395.791C724.975 395.791 726.709 394.057 726.709 391.918C726.709 389.779 724.975 388.045 722.836 388.045C720.697 388.045 718.963 389.779 718.963 391.918C718.963 394.057 720.697 395.791 722.836 395.791Z" fill="#878CBD"/>
<path d="M722.836 473.25C724.975 473.25 726.709 471.516 726.709 469.377C726.709 467.238 724.975 465.504 722.836 465.504C720.697 465.504 718.963 467.238 718.963 469.377C718.963 471.516 720.697 473.25 722.836 473.25Z" fill="#878CBD"/>
</g>
</g>
<defs>
<clipPath id="clip0_242_17179">
<rect width="627.418" height="472.5" fill="white" transform="translate(99.291 0.75)"/>
</clipPath>
</defs>
</svg>
