<svg width="25" height="25" viewBox="0 0 25 25" fill="none" xmlns="http://www.w3.org/2000/svg">
<path d="M12.1094 24.2188C5.41992 24.2188 0 18.7988 0 12.1094C0 5.41992 5.41992 0 12.1094 0C18.7988 0 24.2188 5.41992 24.2188 12.1094C24.2188 18.7988 18.7988 24.2188 12.1094 24.2188ZM13.5205 17.207L9.83398 13.6719H18.75C19.3994 13.6719 19.9219 13.1494 19.9219 12.5V11.7188C19.9219 11.0693 19.3994 10.5469 18.75 10.5469H9.83398L13.5205 7.01172C13.9941 6.55762 14.0039 5.80078 13.54 5.33691L13.0029 4.80469C12.5439 4.3457 11.8018 4.3457 11.3477 4.80469L4.86816 11.2793C4.40918 11.7383 4.40918 12.4805 4.86816 12.9346L11.3477 19.4141C11.8066 19.873 12.5488 19.873 13.0029 19.4141L13.54 18.8818C14.0039 18.418 13.9941 17.6611 13.5205 17.207Z" fill="white"/>
</svg>
