<?xml version="1.0" standalone="no"?>
<!DOCTYPE svg PUBLIC "-//W3C//DTD SVG 20010904//EN"
 "http://www.w3.org/TR/2001/REC-SVG-20010904/DTD/svg10.dtd">
<svg version="1.0" xmlns="http://www.w3.org/2000/svg"
 width="59.000000pt" height="60.000000pt" viewBox="0 0 59.000000 60.000000"
 preserveAspectRatio="xMidYMid meet">
<metadata>
Created by potrace 1.10, written by Peter Selinger 2001-2011
</metadata>
<g transform="translate(0.000000,60.000000) scale(0.100000,-0.100000)"
fill="#000000" stroke="none">
<path d="M155 546 c-57 -87 -70 -199 -31 -282 32 -68 74 -134 86 -134 7 0 10
41 8 113 l-3 112 -26 1 c-34 1 -49 11 -49 33 0 25 25 44 49 36 31 -10 52 -89
52 -197 1 -51 -4 -108 -9 -125 -16 -51 4 -39 34 20 20 38 28 71 32 127 4 82
13 58 -96 263 l-31 58 -16 -25z m24 -240 c7 -8 11 -27 9 -43 l-3 -28 -18 32
c-9 18 -17 37 -17 43 0 15 16 12 29 -4z"/>
<path d="M270 463 c0 -3 12 -31 28 -62 23 -47 27 -69 27 -136 0 -86 -11 -124
-57 -192 -15 -23 -28 -44 -28 -47 0 -11 190 -6 235 5 24 6 55 23 69 38 52 54
43 147 -16 177 l-30 16 25 26 c35 37 42 72 23 116 -21 51 -62 66 -181 66 -52
0 -95 -3 -95 -7z m190 -73 c25 -25 25 -51 1 -81 -14 -18 -29 -23 -67 -23 l-49
-1 -3 63 -3 62 51 0 c37 0 55 -5 70 -20z m-1 -175 c54 -28 48 -104 -10 -124
-17 -6 -49 -11 -70 -11 l-39 0 0 68 c0 38 3 72 7 75 12 12 83 7 112 -8z"/>
</g>
</svg>
