<svg width="59" height="62" viewBox="0 0 59 62" fill="none" xmlns="http://www.w3.org/2000/svg">
<rect x="10.5469" y="13.9062" width="48" height="48" rx="24" fill="#9AFF6B" fill-opacity="0.08"/>
<g clip-path="url(#clip0_71_3840)">
<path d="M24 4.04639C23.4822 4.04639 23.0625 4.46611 23.0625 4.98389V6.7597C23.0625 7.27748 23.4822 7.6972 24 7.6972C24.5178 7.6972 24.9375 7.27748 24.9375 6.7597V4.98389C24.9375 4.46611 24.5178 4.04639 24 4.04639Z" fill="#38327C"/>
<path d="M24 40.7167C23.4822 40.7167 23.0625 41.1364 23.0625 41.6542V43.43C23.0625 43.9478 23.4822 44.3675 24 44.3675C24.5178 44.3675 24.9375 43.9478 24.9375 43.43V41.6542C24.9375 41.1364 24.5178 40.7167 24 40.7167Z" fill="#38327C"/>
<path d="M43.2232 23.2695H41.4473C40.9295 23.2695 40.5098 23.6893 40.5098 24.207C40.5098 24.7248 40.9295 25.1445 41.4473 25.1445H43.2232C43.7409 25.1445 44.1607 24.7248 44.1607 24.207C44.1607 23.6893 43.7409 23.2695 43.2232 23.2695Z" fill="#38327C"/>
<path d="M6.55277 23.2695H4.77686C4.25908 23.2695 3.83936 23.6893 3.83936 24.207C3.83936 24.7248 4.25908 25.1445 4.77686 25.1445H6.55277C7.07055 25.1445 7.49027 24.7248 7.49027 24.207C7.49027 23.6893 7.07055 23.2695 6.55277 23.2695Z" fill="#38327C"/>
<path d="M36.9298 9.95133L35.674 11.2071C35.3079 11.5732 35.3079 12.1668 35.674 12.533C35.8571 12.7161 36.097 12.8076 36.3369 12.8076C36.5768 12.8076 36.8168 12.7161 36.9998 12.533L38.2556 11.2772C38.6217 10.9111 38.6217 10.3175 38.2556 9.95133C37.8895 9.58523 37.2959 9.58523 36.9298 9.95133Z" fill="#38327C"/>
<path d="M11.0001 35.881L9.74429 37.1368C9.3782 37.5029 9.3782 38.0965 9.74429 38.4627C9.92738 38.6458 10.1673 38.7373 10.4072 38.7373C10.6471 38.7373 10.8871 38.6458 11.0701 38.4627L12.3259 37.2069C12.692 36.8408 12.692 36.2472 12.3259 35.881C11.9598 35.5149 11.3662 35.5149 11.0001 35.881Z" fill="#38327C"/>
<path d="M36.9999 35.881C36.6338 35.5149 36.0402 35.5149 35.674 35.881C35.3079 36.2471 35.3079 36.8407 35.674 37.2069L36.9298 38.4627C37.1129 38.6458 37.3528 38.7373 37.5927 38.7373C37.8326 38.7373 38.0726 38.6458 38.2556 38.4627C38.6217 38.0966 38.6217 37.503 38.2556 37.1368L36.9999 35.881Z" fill="#38327C"/>
<path d="M11.0702 9.95133C10.7041 9.58523 10.1105 9.58523 9.74429 9.95133C9.3782 10.3174 9.3782 10.911 9.74429 11.2772L11.0001 12.533C11.1832 12.7161 11.4231 12.8076 11.663 12.8076C11.9029 12.8076 12.1429 12.7161 12.3259 12.533C12.692 12.1669 12.692 11.5733 12.3259 11.2071L11.0702 9.95133Z" fill="#38327C"/>
<path d="M40.9705 7.02947C36.4375 2.49638 30.4106 0 24 0C17.5894 0 11.5625 2.49638 7.02947 7.02947C2.49638 11.5625 0 17.5894 0 24C0 30.4106 2.49638 36.4375 7.02947 40.9705C11.5625 45.5036 17.5894 48 24 48C30.4106 48 36.4375 45.5036 40.9705 40.9705C45.5036 36.4375 48 30.4106 48 24C48 17.5894 45.5036 11.5625 40.9705 7.02947ZM24 46.125C11.8002 46.125 1.875 36.1998 1.875 24C1.875 11.8002 11.8002 1.875 24 1.875C36.1998 1.875 46.125 11.8002 46.125 24C46.125 36.1998 36.1998 46.125 24 46.125Z" fill="#38327C"/>
<path d="M25.5884 23.2868C25.2887 23.1809 25.0097 23.0809 24.7512 22.9869V18.2149C25.5317 18.342 26.1053 18.6925 26.396 19.1068C26.6933 19.5306 27.2781 19.633 27.7019 19.3356C28.1258 19.0382 28.2282 18.4535 27.9308 18.0297C27.3358 17.1819 26.218 16.4858 24.7512 16.324V15.7588C24.7512 15.241 24.3315 14.8213 23.8137 14.8213C23.2959 14.8213 22.8762 15.241 22.8762 15.7588V16.403C22.6055 16.4529 22.3277 16.5199 22.0436 16.6054C20.5728 17.0485 19.4623 18.4817 19.343 20.0906C19.2259 21.6689 20.0715 23.0429 21.6048 23.766C21.8705 23.8912 22.3106 24.072 22.8762 24.2893V29.8687C21.9958 29.6801 21.1429 29.2855 20.62 28.6364C20.2953 28.2332 19.705 28.1695 19.3018 28.4944C18.8986 28.8191 18.835 29.4094 19.1598 29.8126C20.0982 30.9776 21.5234 31.5627 22.8762 31.7781V32.2414C22.8762 32.7591 23.2959 33.1789 23.8137 33.1789C24.3315 33.1789 24.7512 32.7591 24.7512 32.2414V31.8531C24.7578 31.8526 24.7643 31.852 24.7708 31.8514C27.5978 31.6045 28.8172 29.847 29.0156 28.2845C29.2866 26.1509 27.8772 24.0958 25.5884 23.2868ZM22.4044 22.0699C21.2878 21.5434 21.1786 20.6907 21.2128 20.2292C21.2751 19.3904 21.8518 18.6214 22.5844 18.4008C22.6829 18.371 22.7802 18.3444 22.8761 18.3207V22.2731C22.6627 22.1857 22.5058 22.1177 22.4044 22.0699ZM27.1555 28.0482C27.0223 29.0967 26.1277 29.8077 24.7512 29.9689V24.9794C24.8213 25.0043 24.8921 25.0294 24.9636 25.0547C26.6549 25.6524 27.2854 27.0255 27.1555 28.0482Z" fill="#2FAB73"/>
</g>
<defs>
<clipPath id="clip0_71_3840">
<rect width="48" height="48" fill="white"/>
</clipPath>
</defs>
</svg>
