<svg width="59" height="62" viewBox="0 0 59 62" fill="none" xmlns="http://www.w3.org/2000/svg">
<rect x="10.5469" y="13.9062" width="48" height="48" rx="24" fill="#9AFF6B" fill-opacity="0.08"/>
<path d="M44.5588 2.67004H3.44119C1.54369 2.67004 0 4.21701 0 6.11854V42.4765C0 44.0498 1.27509 45.3298 2.84222 45.3298H45.1577C46.7249 45.3298 47.9999 44.0499 47.9999 42.4765V6.11854C48 4.21701 46.4563 2.67004 44.5588 2.67004ZM1.875 6.11854C1.875 5.25098 2.57756 4.54514 3.44119 4.54514H44.5588C45.4224 4.54514 46.125 5.25098 46.125 6.11854V11.6903H1.875V6.11854ZM46.125 42.4765C46.125 43.0159 45.6911 43.4548 45.1578 43.4548H2.84222C2.30878 43.4548 1.875 43.0159 1.875 42.4765V13.5652H46.125V42.4765Z" fill="#38327C"/>
<path d="M11.0132 26.8119L6.46874 34.6832C6.2099 35.1315 6.36356 35.705 6.81189 35.9639C7.26022 36.2227 7.83369 36.069 8.09254 35.6207L12.637 27.7494C12.8959 27.3011 12.7422 26.7276 12.2939 26.4688C11.8455 26.2099 11.2721 26.3636 11.0132 26.8119Z" fill="#2FAB73"/>
<path d="M17.637 34.6832L13.0925 26.8119C12.8337 26.3636 12.2602 26.2099 11.8119 26.4687C11.3636 26.7276 11.2099 27.3011 11.4687 27.7494L16.0132 35.6207C16.2721 36.069 16.8455 36.2227 17.2939 35.9638C17.7423 35.7049 17.8959 35.1315 17.637 34.6832Z" fill="#2FAB73"/>
<path d="M39.4157 26.0898L32.9888 19.6629C32.6228 19.2969 32.0291 19.2969 31.663 19.6629C31.2969 20.029 31.2969 20.6227 31.663 20.9887L38.0899 27.4156C38.4559 27.7817 39.0496 27.7817 39.4157 27.4156C39.7818 27.0495 39.7818 26.4558 39.4157 26.0898Z" fill="#2FAB73"/>
<path d="M17.9887 35.1936L32.1938 20.9886C32.5598 20.6225 32.5598 20.0288 32.1938 19.6628C31.8277 19.2967 31.234 19.2967 30.868 19.6628L16.6629 33.8678C16.2969 34.2339 16.2969 34.8276 16.6629 35.1936C17.029 35.5598 17.6227 35.5597 17.9887 35.1936Z" fill="#2FAB73"/>
<path d="M30.8412 7.18018H29.5818C29.0641 7.18018 28.6443 7.59999 28.6443 8.11768C28.6443 8.63536 29.0641 9.05518 29.5818 9.05518H30.8412C31.3589 9.05518 31.7787 8.63536 31.7787 8.11768C31.7787 7.59989 31.3589 7.18018 30.8412 7.18018Z" fill="#38327C"/>
<path d="M36.666 7.18018H35.4067C34.889 7.18018 34.4692 7.59999 34.4692 8.11768C34.4692 8.63536 34.889 9.05518 35.4067 9.05518H36.666C37.1838 9.05518 37.6035 8.63536 37.6035 8.11768C37.6035 7.59989 37.1838 7.18018 36.666 7.18018Z" fill="#38327C"/>
<path d="M42.4908 7.18018H41.2314C40.7137 7.18018 40.2939 7.59999 40.2939 8.11768C40.2939 8.63536 40.7137 9.05518 41.2314 9.05518H42.4908C43.0085 9.05518 43.4283 8.63536 43.4283 8.11768C43.4283 7.59989 43.0086 7.18018 42.4908 7.18018Z" fill="#38327C"/>
<path d="M15.7703 7.18018H6.6814C6.16371 7.18018 5.7439 7.59999 5.7439 8.11768C5.7439 8.63536 6.16371 9.05518 6.6814 9.05518H15.7703C16.288 9.05518 16.7078 8.63536 16.7078 8.11768C16.7078 7.59989 16.288 7.18018 15.7703 7.18018Z" fill="#38327C"/>
</svg>
