<svg width="60" height="64" viewBox="0 0 60 64" fill="none" xmlns="http://www.w3.org/2000/svg">
<rect x="0.375" y="15.3594" width="48" height="48" rx="24" fill="#9AFF6B" fill-opacity="0.08"/>
<g clip-path="url(#clip0_71_3872)">
<path d="M40.4801 16.3501C37.9086 16.3501 35.8911 19.2173 35.8911 19.2173C35.8911 19.2173 33.9881 16.3501 31.301 16.3501C28.6874 16.3501 26.5532 18.5057 26.4135 21.1157C26.3349 22.5902 26.8102 23.7123 27.4798 24.7286C28.8181 26.7592 35.8996 31.459 35.8996 31.459C35.8996 31.459 42.9545 26.777 44.3017 24.7286C44.9728 23.7077 45.4468 22.5901 45.3678 21.1157C45.2281 18.5057 43.0938 16.3501 40.4801 16.3501Z" fill="#2FAB73"/>
<path d="M58.9531 35.0594H58.0734V8.02645C58.0734 5.92008 56.3598 4.20642 54.2534 4.20642H17.5278C15.4214 4.20642 13.7078 5.92008 13.7078 8.02645V35.0595H12.8281C12.3103 35.0595 11.8906 35.4792 11.8906 35.997V39.5038C11.8906 41.8693 13.815 43.7938 16.1805 43.7938H55.6006C57.9661 43.7938 59.8906 41.8694 59.8906 39.5039V35.997C59.8906 35.4791 59.4708 35.0594 58.9531 35.0594ZM17.5278 6.08142H54.2534C55.3259 6.08142 56.1984 6.95395 56.1984 8.02636V10.6361H15.5828V8.02645C15.5828 6.95395 16.4553 6.08142 17.5278 6.08142ZM15.5828 12.5111H56.1984V35.0594H42.6765C42.1588 35.0594 41.739 35.4791 41.739 35.9969C41.739 36.5956 41.2519 37.0827 40.6531 37.0827H31.1281C30.5293 37.0827 30.0422 36.5955 30.0422 35.9969C30.0422 35.4791 29.6225 35.0594 29.1047 35.0594H15.5828V12.5111ZM58.0156 39.5038C58.0156 40.8354 56.9322 41.9187 55.6006 41.9187H16.1805C14.8489 41.9187 13.7656 40.8353 13.7656 39.5037V36.9344H28.3193C28.7124 38.1089 29.823 38.9577 31.128 38.9577H40.653C41.9581 38.9577 43.0688 38.1089 43.4619 36.9344H58.0156V39.5038Z" fill="#38327C"/>
<path d="M35.364 9.18555H36.4172C36.9349 9.18555 37.3547 8.76583 37.3547 8.24805C37.3547 7.73027 36.9349 7.31055 36.4172 7.31055H35.364C34.8462 7.31055 34.4265 7.73027 34.4265 8.24805C34.4265 8.76583 34.8462 9.18555 35.364 9.18555Z" fill="#38327C"/>
<path d="M50.0574 23.2241H51.0433C51.561 23.2241 51.9808 22.8044 51.9808 22.2866C51.9808 21.7688 51.561 21.3491 51.0433 21.3491H50.0574C49.5398 21.3491 49.1199 21.7688 49.1199 22.2866C49.1199 22.8044 49.5398 23.2241 50.0574 23.2241Z" fill="#38327C"/>
<path d="M47.69 17.9137C47.93 17.9137 48.1699 17.8221 48.3529 17.6391L49.0499 16.942C49.416 16.576 49.416 15.9823 49.0499 15.6162C48.6837 15.2501 48.0901 15.2501 47.724 15.6163L47.027 16.3134C46.6609 16.6795 46.6609 17.2731 47.027 17.6392C47.2101 17.8221 47.4501 17.9137 47.69 17.9137Z" fill="#38327C"/>
<path d="M47.7241 28.957C47.9072 29.1401 48.1471 29.2316 48.387 29.2316C48.6269 29.2316 48.8668 29.14 49.0499 28.957C49.416 28.5909 49.416 27.9972 49.0499 27.6311L48.3529 26.9341C47.9868 26.568 47.3933 26.568 47.027 26.9341C46.6609 27.3002 46.6609 27.8938 47.027 28.2599L47.7241 28.957Z" fill="#38327C"/>
<path d="M21.7238 21.3491H20.738C20.2203 21.3491 19.8005 21.7688 19.8005 22.2866C19.8005 22.8044 20.2203 23.2241 20.738 23.2241H21.7238C22.2416 23.2241 22.6614 22.8044 22.6614 22.2866C22.6614 21.7688 22.2416 21.3491 21.7238 21.3491Z" fill="#38327C"/>
<path d="M23.4284 26.9341L22.7314 27.6311C22.3653 27.9972 22.3653 28.5909 22.7314 28.9571C22.9145 29.1402 23.1544 29.2317 23.3943 29.2317C23.6342 29.2317 23.8742 29.1402 24.0572 28.9571L24.7542 28.26C25.1203 27.8939 25.1203 27.3003 24.7542 26.9341C24.3882 26.568 23.7946 26.568 23.4284 26.9341Z" fill="#38327C"/>
<path d="M24.0573 15.6162C23.6912 15.2502 23.0976 15.2502 22.7314 15.6162C22.3653 15.9823 22.3653 16.576 22.7314 16.9422L23.4284 17.6392C23.6115 17.8223 23.8514 17.9138 24.0913 17.9138C24.3312 17.9138 24.5712 17.8223 24.7542 17.6392C25.1203 17.2731 25.1203 16.6795 24.7542 16.3133L24.0573 15.6162Z" fill="#38327C"/>
</g>
<defs>
<clipPath id="clip0_71_3872">
<rect width="48" height="48" fill="white" transform="translate(11.8906)"/>
</clipPath>
</defs>
</svg>
