<svg width="62" height="61" viewBox="0 0 62 61" fill="none" xmlns="http://www.w3.org/2000/svg">
<rect y="12.7188" width="48" height="48" rx="24" fill="#9AFF6B" fill-opacity="0.08"/>
<g clip-path="url(#clip0_71_3888)">
<path d="M61.0625 37.0717H60.1828V10.0388C60.1828 7.93241 58.4692 6.21875 56.3628 6.21875H19.6372C17.5308 6.21875 15.8172 7.93241 15.8172 10.0388V37.0717H14.9375C14.4197 37.0717 14 37.4915 14 38.0092V41.516C14 43.8815 15.9244 45.806 18.29 45.806H57.71C60.0755 45.806 62 43.8816 62 41.516V38.0092C62 37.4914 61.5802 37.0717 61.0625 37.0717ZM19.6372 8.09375H56.3628C57.4353 8.09375 58.3078 8.96628 58.3078 10.0388V12.6484H17.6922V10.0388C17.6922 8.96628 18.5646 8.09375 19.6372 8.09375ZM17.6922 14.5234H58.3078V37.0717H44.7859C44.2682 37.0717 43.8484 37.4915 43.8484 38.0092C43.8484 38.608 43.3613 39.0951 42.7625 39.0951H33.2375C32.6387 39.0951 32.1516 38.608 32.1516 38.0092C32.1516 37.4915 31.7318 37.0717 31.2141 37.0717H17.6922V14.5234ZM60.125 41.516C60.125 42.8476 59.0416 43.931 57.71 43.931H18.29C16.9584 43.931 15.875 42.8476 15.875 41.516V38.9467H30.4287C30.8218 40.1212 31.9324 40.9701 33.2375 40.9701H42.7625C44.0676 40.9701 45.1782 40.1212 45.5713 38.9467H60.125V41.516Z" fill="#38327C"/>
<path d="M31.1224 4.0411C28.2882 4.0411 25.8437 2.38838 24.7063 0H21.3731C20.2358 2.38828 17.7912 4.0411 14.9571 4.0411C13.9016 4.0411 12.9003 3.81169 12 3.40078V15.0775C12 23.618 23.0397 26.5324 23.0397 26.5324C23.0397 26.5324 34.0794 23.618 34.0794 15.0775V3.40078C33.1792 3.81169 32.1777 4.0411 31.1224 4.0411Z" fill="#2FAB73"/>
<path d="M22.6772 16.562C22.4301 16.562 22.1923 16.4644 22.0163 16.2893L19.9789 14.2635C19.6117 13.8983 19.61 13.3048 19.9752 12.9377C20.3401 12.5704 20.9338 12.5688 21.301 12.9339L22.6168 14.2423L26.0357 10.1891C26.3697 9.79328 26.961 9.74322 27.3567 10.077C27.7526 10.4108 27.8028 11.0023 27.4689 11.3981L23.3939 16.2291C23.225 16.4294 22.9801 16.5498 22.7184 16.5612C22.7046 16.5618 22.691 16.562 22.6772 16.562Z" fill="white"/>
</g>
<defs>
<clipPath id="clip0_71_3888">
<rect width="50" height="46" fill="white" transform="translate(12)"/>
</clipPath>
</defs>
</svg>
